<svg width="75" height="40" viewBox="0 0 75 40" fill="none" xmlns="http://www.w3.org/2000/svg">
<path fill-rule="evenodd" clip-rule="evenodd" d="M0 0.693346C5.18083 -0.703309 10.7009 0.0278521 15.3459 2.72598C19.9909 5.42411 23.3804 9.86819 24.7686 15.0806C26.1568 20.293 25.43 25.8467 22.7482 30.52C20.0664 35.1933 15.6493 38.6033 10.4684 40L5.23421 20.3467L0 0.693346ZM24.7686 0.693346C29.9494 -0.703309 35.4695 0.0278521 40.1145 2.72598C44.7595 5.42411 48.1489 9.86819 49.5371 15.0806C50.9253 20.293 50.1986 25.8467 47.5168 30.52C44.835 35.1933 40.4178 38.6033 35.237 40L30.0028 20.3467L24.7686 0.693346ZM64.8883 2.72598C60.2432 0.0278521 54.7231 -0.703309 49.5423 0.693346L54.7765 20.3467L60.0107 40C65.1916 38.6033 69.6088 35.1933 72.2906 30.52C74.9723 25.8467 75.6991 20.293 74.3109 15.0806C72.9227 9.86819 69.5333 5.42411 64.8883 2.72598Z" fill="black"/>
</svg>
